<svg xmlns="http://www.w3.org/2000/svg" xmlns:svgjs="http://svgjs.com/svgjs" xmlns:xlink="http://www.w3.org/1999/xlink" width="288" height="288"><svg xmlns="http://www.w3.org/2000/svg" width="288" height="288" viewBox="0 0 64 64"><path fill="#56d8c8" d="M27,28A12,12,0,1,0,15,16,12,12,0,0,0,27,28ZM27,6A10,10,0,1,1,17,16,10,10,0,0,1,27,6Zm5.42,47a10.51,10.51,0,0,0,.78,2H11a1,1,0,0,1-1-1V50A17,17,0,0,1,40.25,39.35a10.71,10.71,0,0,0-2,.73A14.85,14.85,0,0,0,27,35,15,15,0,0,0,12,50v3ZM43,40A10,10,0,1,0,53,50,10,10,0,0,0,43,40Zm0,18a8,8,0,1,1,8-8A8,8,0,0,1,43,58Zm1-9h4v2H44v4H42V51H38V49h4V45h2Z" class="color000 svgShape" data-name="56 Add User, Avatar, Create User"/></svg></svg>