<svg xmlns="http://www.w3.org/2000/svg" xmlns:svgjs="http://svgjs.com/svgjs" xmlns:xlink="http://www.w3.org/1999/xlink" width="288" height="288"><svg xmlns="http://www.w3.org/2000/svg" width="288" height="288" fill="none" viewBox="0 0 128 128"><path fill="#56d8c8" d="M11.6126 101.334H116.56C116.56 103.271 114.99 104.841 113.053 104.841H15.1192C13.1826 104.841 11.6126 103.271 11.6126 101.334Z" class="color000 svgShape"/><rect width="110.907" height="5.507" x="8.546" y="96.202" fill="#fff" stroke="#56d8c8" stroke-width="2" class="colorfff svgShape colorStroke000 svgStroke" rx="2.753"/><rect width="21.318" height="69.841" x="12.215" y="25.145" fill="#fff" stroke="#56d8c8" stroke-linecap="round" stroke-linejoin="round" stroke-width="2" class="colorfff svgShape colorStroke000 svgStroke" rx="5"/><rect width="21.318" height="69.841" x="33.91" y="25.145" fill="#fff" stroke="#56d8c8" stroke-linecap="round" stroke-linejoin="round" stroke-width="2" class="colorfff svgShape colorStroke000 svgStroke" rx="5"/><ellipse cx="22.805" cy="65.92" stroke="#56d8c8" stroke-width="2" class="colorStroke000 svgStroke" rx="4.046" ry="5.854"/><ellipse cx="44.569" cy="65.92" stroke="#56d8c8" stroke-width="2" class="colorStroke000 svgStroke" rx="4.046" ry="5.854"/><path stroke="#56d8c8" stroke-linecap="round" stroke-linejoin="round" stroke-width="2" d="M12.6458 38.4562H32.7914M12.6456 42.9331H32.7913M34.4965 38.4562H54.6421M34.4966 42.9331H54.6423" class="colorStroke000 svgStroke"/><rect width="21.318" height="69.841" x="55.605" y="25.145" fill="#fff" stroke="#56d8c8" stroke-linecap="round" stroke-linejoin="round" stroke-width="2" class="colorfff svgShape colorStroke000 svgStroke" rx="5"/><ellipse cx="66.264" cy="65.92" stroke="#56d8c8" stroke-width="2" class="colorStroke000 svgStroke" rx="4.046" ry="5.854"/><path stroke="#56d8c8" stroke-linecap="round" stroke-linejoin="round" stroke-width="2" d="M55.7784 38.4563H75.9241M55.7776 42.9331H75.9233" class="colorStroke000 svgStroke"/><rect width="22.04" height="70.553" x="75.476" y="28.863" fill="#56d8c8" class="color000 svgShape" rx="5" transform="rotate(-15 75.476 28.863)"/><ellipse cx="96.77" cy="65.719" fill="#56d8c8" stroke="#fff" stroke-width="2" class="color000 svgShape colorStrokefff svgStroke" rx="4.046" ry="5.854" transform="rotate(-15 96.77 65.719)"/><path stroke="#fff" stroke-linecap="round" stroke-linejoin="round" stroke-width="2" d="M80.8373 41.5554L98.3261 36.8693M81.9963 45.8795L99.485 41.1934" class="colorStrokefff svgStroke"/></svg></svg>