<svg xmlns="http://www.w3.org/2000/svg" xmlns:svgjs="http://svgjs.com/svgjs" xmlns:xlink="http://www.w3.org/1999/xlink" width="288" height="288"><svg xmlns="http://www.w3.org/2000/svg" width="288" height="288" enable-background="new 0 0 48 48" viewBox="0 0 48 48"><path fill="#56d8c8" d="M19,43c0,0.33,0.16,0.63,0.43,0.82C19.6,43.94,19.8,44,20,44c0.12,0,0.24-0.02,0.35-0.06l8-3C28.74,40.79,29,40.42,29,40
	V28.36l9.77-11.72C38.92,16.46,39,16.23,39,16v-6c1.1,0,2-0.9,2-2V6c0-1.1-0.9-2-2-2H9C7.9,4,7,4.9,7,6v2c0,1.1,0.9,2,2,2v6
	c0,0.23,0.08,0.46,0.23,0.64L19,28.36V43z M9,8V6h30l0,2h-1H10H9z M11,15.64V10h26v5.64l-9.77,11.72C27.08,27.54,27,27.77,27,28
	v11.31l-6,2.25V28c0-0.23-0.08-0.46-0.23-0.64L11,15.64z" class="color000 svgShape"/></svg></svg>