<svg xmlns="http://www.w3.org/2000/svg" xmlns:svgjs="http://svgjs.com/svgjs" xmlns:xlink="http://www.w3.org/1999/xlink" width="288" height="288"><svg xmlns="http://www.w3.org/2000/svg" width="288" height="288" viewBox="0 0 64 64"><path fill="#56d8c8" d="M6 50.15l25 7.69v-44L6 6.15zM9.79 14.86A1 1 0 0 1 11 14.19l17.12 5.13a1 1 0 0 1-.28 2 .93.93 0 0 1-.29-.05L10.46 16.11A1 1 0 0 1 9.79 14.86zm0 7A1 1 0 0 1 11 21.19l17.12 5.13a1 1 0 0 1-.28 2 .93.93 0 0 1-.29-.05L10.46 23.11A1 1 0 0 1 9.79 21.86zm0 7A1 1 0 0 1 11 28.19l17.12 5.13a1 1 0 0 1-.28 2 .93.93 0 0 1-.29-.05L10.46 30.11A1 1 0 0 1 9.79 28.86zm0 7A1 1 0 0 1 11 35.19l17.12 5.13a1 1 0 0 1-.28 2 .93.93 0 0 1-.29-.05L10.46 37.11A1 1 0 0 1 9.79 35.86zm0 7A1 1 0 0 1 11 42.19l17.12 5.13a1 1 0 0 1-.28 2 .93.93 0 0 1-.29-.05L10.46 44.11A1 1 0 0 1 9.79 42.86zM33 13.85v44l25-7.69v-44zM53.54 37.11L36.41 42.23a.93.93 0 0 1-.29.05 1 1 0 0 1-.28-2L53 35.19a1 1 0 1 1 .58 1.92zm0-7L36.41 35.23a.93.93 0 0 1-.29.05 1 1 0 0 1-.28-2L53 28.19a1 1 0 1 1 .58 1.92zm0-7L36.41 28.23a.93.93 0 0 1-.29.05 1 1 0 0 1-.28-2L53 21.19a1 1 0 1 1 .58 1.92z" class="color000 svgShape" data-name="Layer 2"/></svg></svg>