<svg xmlns="http://www.w3.org/2000/svg" xmlns:svgjs="http://svgjs.com/svgjs" xmlns:xlink="http://www.w3.org/1999/xlink" width="288" height="288"><svg xmlns="http://www.w3.org/2000/svg" width="288" height="288" viewBox="0 0 24 24"><path fill="none" stroke="#56d8c8" d="m12.927 3.566-.46-.066.032-.464L12.5 3V2a.5.5 0 1 0-1 0v1l.001.036.033.464-.46.066A6.501 6.501 0 0 0 5.5 10v6.5H4a1.5 1.5 0 0 0 0 3h16a1.5 1.5 0 0 0 0-3h-1.5V10a6.501 6.501 0 0 0-5.573-6.434zM10 20a2 2 0 1 0 4 0" class="colorStroke4A4A4A svgStroke"/></svg></svg>