<svg xmlns="http://www.w3.org/2000/svg" xmlns:svgjs="http://svgjs.com/svgjs" xmlns:xlink="http://www.w3.org/1999/xlink" width="288" height="288"><svg xmlns="http://www.w3.org/2000/svg" width="288" height="288" enable-background="new 0 0 60 60" viewBox="0 0 60 60"><path fill="#fff" d="M50,60H10C4.477,60,0,55.523,0,50V10C0,4.477,4.477,0,10,0h40c5.523,0,10,4.477,10,10v40
		C60,55.523,55.523,60,50,60z" class="colorfff svgShape"/><path fill="#fff" d="M48.53,51h-4.365c-0.553,0-1-0.448-1-1s0.447-1,1-1h4.365c1.506,0,2.788-1.133,2.984-2.635
		c0.702-5.404,1.059-10.91,1.059-16.365c0-3.397-0.14-6.845-0.414-10.247c-0.126-1.556-1.442-2.774-2.998-2.774H25.854
		c-0.333,0-0.645-0.166-0.83-0.442c-1.331-1.979-2.507-3.796-3.583-5.536H11.47c-1.506,0-2.788,1.133-2.984,2.637
		C7.782,19.045,7.426,24.55,7.426,30c0,5.458,0.356,10.962,1.06,16.363C8.682,47.867,9.964,49,11.47,49h28.695c0.553,0,1,0.448,1,1
		s-0.447,1-1,1H11.47c-2.507,0-4.643-1.882-4.967-4.378C5.788,41.136,5.426,35.544,5.426,30c0-5.536,0.362-11.128,1.077-16.622
		C6.827,10.882,8.963,9,11.47,9H22c0.348,0,0.671,0.181,0.853,0.478c1.062,1.732,2.222,3.536,3.535,5.5h22.773
		c2.59,0,4.782,2.026,4.992,4.613c0.278,3.456,0.42,6.958,0.42,10.408c0,5.541-0.362,11.134-1.076,16.624
		C53.173,49.119,51.037,51,48.53,51z" class="color78a0f0 svgShape"/><path fill="#fff" d="M48.531,51H11.469c-2.507,0-4.642-1.885-4.967-4.385c-0.714-5.489-1.075-11.078-1.075-16.613
		c0-2.079,0.051-4.172,0.149-6.223C5.706,21.099,7.903,19,10.579,19H16.1c0.553,0,1,0.448,1,1s-0.447,1-1,1h-5.521
		c-1.607,0-2.927,1.263-3.005,2.876c-0.098,2.018-0.147,4.079-0.147,6.126c0,5.449,0.356,10.952,1.058,16.355
		C8.681,47.864,9.964,49,11.469,49h37.062c1.505,0,2.788-1.136,2.984-2.643c0.701-5.401,1.057-10.899,1.057-16.341
		c0-2.045-0.05-4.111-0.149-6.14C52.345,22.263,51.025,21,49.418,21H20.1c-0.553,0-1-0.448-1-1s0.447-1,1-1h29.318
		c2.676,0,4.873,2.099,5.003,4.779c0.101,2.061,0.151,4.16,0.151,6.237c0,5.528-0.361,11.112-1.074,16.599
		C53.173,49.115,51.038,51,48.531,51z" class="color78a0f0 svgShape"/><path fill="#fff" d="M10.361,45.249c-0.829-6.741-1.107-13.551-0.83-20.338C9.574,23.842,10.467,23,11.537,23H48.46
		c1.07,0,1.963,0.842,2.006,1.912c0.277,6.793,0,13.603-0.828,20.338C49.516,46.25,48.654,47,47.646,47H12.354
		C11.346,47,10.484,46.25,10.361,45.249z" class="color9df svgShape"/></svg></svg>